<?xml version="1.0" standalone="no"?>
<!DOCTYPE svg PUBLIC "-//W3C//DTD SVG 20010904//EN"
 "http://www.w3.org/TR/2001/REC-SVG-20010904/DTD/svg10.dtd">
<svg version="1.0" xmlns="http://www.w3.org/2000/svg"
 width="800.000000pt" height="800.000000pt" viewBox="0 0 800.000000 800.000000"
 preserveAspectRatio="xMidYMid meet">
<metadata>
Created by potrace 1.11, written by Peter Selinger 2001-2013
</metadata>
<g transform="translate(0.000000,800.000000) scale(0.100000,-0.100000)"
fill="#000000" stroke="none">
<path d="M3370 6178 c-245 -8 -266 -10 -540 -60 l-285 -52 -265 -132 -265
-132 -171 -174 c-94 -95 -196 -205 -227 -244 -62 -79 -134 -217 -213 -407
l-53 -127 24 -273 c49 -569 213 -1738 281 -2002 27 -107 45 -156 77 -210 63
-105 80 -121 152 -145 61 -20 72 -21 156 -10 111 15 293 70 499 152 133 53
186 82 380 205 l225 143 178 188 c162 170 193 209 345 431 92 135 173 255 180
268 7 13 49 117 92 231 l80 209 0 381 c0 333 -2 383 -16 396 -20 21 -37 20
-57 -2 -15 -17 -17 -59 -17 -392 l0 -374 -76 -200 -76 -200 -166 -245 c-155
-230 -178 -259 -349 -437 l-183 -192 -212 -135 c-180 -114 -236 -145 -363
-195 -181 -72 -397 -138 -482 -147 -45 -5 -75 -3 -111 9 -44 15 -52 23 -94 94
-37 63 -52 104 -82 225 -66 268 -232 1460 -276 1973 l-20 240 43 105 c73 172
156 328 214 403 31 39 124 140 207 224 l151 154 259 130 260 130 260 49 c254
47 269 48 551 59 l290 11 283 -40 283 -40 222 -155 223 -154 248 -289 248
-288 245 -480 c207 -407 274 -549 435 -930 105 -247 250 -606 323 -796 152
-395 243 -583 325 -662 l49 -47 134 0 134 0 174 72 174 71 300 238 c402 318
373 291 395 372 10 37 17 67 15 67 -2 0 -44 -33 -92 -73 -48 -40 -216 -174
-373 -298 l-285 -227 -160 -66 -161 -66 -110 0 -110 0 -36 38 c-68 71 -154
251 -289 606 -72 187 -216 544 -321 791 -164 390 -224 517 -444 948 l-254 498
-251 291 -252 292 -236 165 -236 165 -300 43 c-165 23 -311 42 -325 41 -14 -1
-140 -5 -280 -10z"/>
<path d="M2130 4770 c-29 -29 -15 -60 26 -60 32 0 34 2 34 34 0 41 -31 55 -60
26z"/>
</g>
</svg>
